# xmcd CD database file
#
# Track frame offsets:
#	150
#	5775
#	24026
#	37784
#	54335
#	69877
#	83907
#	97589
#	110609
#	127966
#	143842
#	158104
#
# Disc length: 2218 seconds
#
# Revision: 0
# Processed by: cddbd v1.5.2PL0 Copyright (c) Steve Scherf et al.
# Submitted via: CDex 1.70beta2
#
DISCID=8208a80c
DTITLE=Daisy Haggard - Silver Green
DYEAR=2004
DGENRE=New Age
TTITLE0=The March of Industry
TTITLE1=Camera Girls
TTITLE2=The Colour of Tears
TTITLE3=Fragile
TTITLE4=Where the Wind Blows
TTITLE5=Come Home James
TTITLE6=Silver Green
TTITLE7=Fly Angel
TTITLE8=The Leaving of Me
TTITLE9=This Land of Mine
TTITLE10=Moving On
TTITLE11=Nowhere Streets
EXTD=YEAR: 2004
EXTT0=
EXTT1=
EXTT2=
EXTT3=
EXTT4=
EXTT5=
EXTT6=
EXTT7=
EXTT8=
EXTT9=
EXTT10=
EXTT11=
PLAYORDER=
